<svg preserveAspectRatio="none" overflow="visible" style="display: block;" width="23.9965" height="23.9998" viewBox="0 0 23.9965 23.9998" fill="none" xmlns="http://www.w3.org/2000/svg">
<g id="4tIVlk.tif">
<path id="Vector" d="M5.69063 23.9938L1.92464 23.9998C0.83887 23.9998 0 23.1183 0 22.0402V18.407C0 17.5226 0.368865 16.7453 0.99058 16.1259L16.2092 0.920007C17.4913 -0.360549 19.7224 -0.256318 20.9896 0.934897L22.9707 2.90934C24.3659 4.30008 24.3213 6.53659 22.938 7.92137L7.73128 23.1362C7.19584 23.6722 6.46703 23.9938 5.68766 23.9968L5.69063 23.9938ZM21.8701 6.86417C22.6971 6.03925 22.7001 4.75572 21.888 3.94867L20.0228 2.08144C19.2553 1.31311 17.997 1.25355 17.2177 2.02784L15.1889 4.04397L19.9395 8.79394L21.8701 6.86417ZM1.95141 22.4959H5.55677C6 22.4959 6.37779 22.3589 6.70203 22.0462L18.8746 9.86007L14.1299 5.11011L1.95736 17.2962C1.67774 17.6 1.51116 17.9425 1.51116 18.3564V22.0879C1.51116 22.3232 1.70451 22.4929 1.95141 22.4929V22.4959Z" fill="white"/>
</g>
</svg>
