<svg preserveAspectRatio="none" overflow="visible" style="display: block;" width="55" height="46" viewBox="0 0 55 46" fill="none" xmlns="http://www.w3.org/2000/svg">
<g id="Logos" clip-path="url(#clip0_0_4)">
<path id="Vector" d="M26.4861 6.67504V17.071L30.553 18.5556L34.6256 14.1037V9.71224L42.735 12.6456L32.8298 23.4835C32.7525 23.5685 32.7129 23.6044 32.7053 23.7045C32.6714 23.6951 32.6242 23.7121 32.5922 23.7442L0 11.89V11.8428C0.21127 11.7163 0.3452 11.4953 0.516857 11.3064L1.06955 10.702L1.70336 10.0182L2.22777 9.44026L2.85969 8.75651L3.38409 8.17853L4.01602 7.49479L4.54042 6.91681L5.17234 6.23306L5.69674 5.65509L6.27585 5.02423L6.85496 4.39336L7.43218 3.76061L8.00751 3.12598C8.16785 2.95032 8.32819 2.78221 8.49041 2.60466L9.04311 2.00402L9.60335 1.40149C9.80142 1.18806 9.99194 0.855629 10.256 0.753634L26.488 6.67693L26.4861 6.67504ZM12.3027 14.7705C12.282 14.8101 12.2782 14.8536 12.2631 14.8706L20.3234 17.7926C20.3611 17.7132 20.4366 17.7132 20.4706 17.6509L22.4116 14.1169C21.6156 12.6229 20.3611 11.5312 18.7804 10.9853C18.007 10.719 17.2468 10.532 16.4489 10.4338C16.3979 10.4281 16.3319 10.4375 16.2734 10.4054C15.7868 10.1486 14.87 10.5565 14.4512 10.9891C14.1777 11.2705 13.9759 11.5765 13.7948 11.9221L12.3027 14.7724V14.7705Z" fill="#39474F"/>
<path id="Vector_2" d="M12.3518 0L22.3795 3.68884L25.8523 4.95623C26.0768 5.03745 26.2748 5.14133 26.4899 5.13567L26.4861 6.67504L10.2541 0.749856L12.1424 0H12.3518Z" fill="#283239"/>
<path id="Vector_3" d="M54.9792 15.5694L32.7054 23.7045C32.7129 23.6044 32.7525 23.5685 32.8298 23.4835L42.735 12.6456L44.81 11.873L54.9792 15.5713V15.5694Z" fill="#283239"/>
<path id="Vector_4" d="M44.81 11.873L42.735 12.6456L34.6256 9.71224L34.6294 8.17287L44.6119 11.7918C44.7062 11.8258 44.7496 11.8334 44.8081 11.873H44.81Z" fill="#283239"/>
<path id="Vector_5" d="M26.5974 3.66806C26.5653 3.75306 26.5974 3.77572 26.6842 3.80595L30.5549 5.21311L34.6294 3.7455V8.17098L34.6256 9.71036V14.1018L30.553 18.5537L26.4842 17.0691V6.67315L26.4899 5.13378V3.78328C26.4899 3.7455 26.5031 3.6964 26.5219 3.69073L26.5993 3.66806H26.5974Z" fill="#39474F"/>
<path id="Vector_6" d="M34.6294 3.74739L30.5549 5.215L26.6842 3.80783C26.5993 3.77761 26.5653 3.75495 26.5974 3.66995L30.57 2.22501L34.2352 3.5604C34.3785 3.61329 34.4898 3.6454 34.6294 3.74739Z" fill="#283239"/>
<path id="Vector_7" d="M55 37.8177L32.6374 45.9622C32.628 45.9679 32.6054 45.9679 32.5922 45.9943V23.7442C32.6224 23.7121 32.6714 23.6951 32.7035 23.7045L54.9774 15.5694L54.9981 37.8177H55ZM44.8006 32.6254L44.8119 34.1175L52.9194 31.1634L50.901 30.4173L50.9047 23.0057L44.8006 25.2212V32.6254ZM34.6294 36.3255L34.6351 37.8252L42.7463 34.8674L40.7261 34.127V26.7096L34.6238 28.9309L34.6294 36.3236V36.3255Z" fill="#A1A1A1"/>
<path id="Vector_8" d="M50.901 30.4173L44.8006 32.6254V25.2231L50.9048 23.0076L50.901 30.4173Z" fill="#059161"/>
<path id="Vector_9" d="M44.8006 32.6254L50.901 30.4173L52.9194 31.1653L44.8138 34.1194L44.8006 32.6254Z" fill="#39474F"/>
<path id="Vector_10" d="M40.7261 34.127L34.6294 36.3255L34.6238 28.9327L40.7261 26.7115V34.127Z" fill="#059161"/>
<path id="Vector_11" d="M40.7261 34.127L42.7463 34.8674L34.6351 37.8252L34.6294 36.3255L40.7261 34.127Z" fill="#39474F"/>
<path id="Vector_12" d="M32.5903 23.7442V45.9943L30.5493 45.2558L30.5549 43.7825V42.2564L30.5587 28.9252L24.4545 26.7077L22.4116 25.9654L22.4154 40.7869L20.3536 41.5443L0 34.1515V11.89L32.5903 23.7442ZM2.05422 27.4463L10.1975 30.4173V28.9252L10.2051 21.5154L4.12354 19.3036L2.06365 18.5519L2.05422 27.4444V27.4463ZM12.2914 31.1766L20.38 34.1251V32.6424V25.2212L14.5229 23.0907C14.4267 23.0548 14.3701 23.0264 14.2607 23.0586C14.2211 22.983 14.1475 22.949 14.0589 22.9169L12.2348 22.2577V30.9897C12.2329 31.0425 12.2254 31.154 12.2914 31.1766Z" fill="#DCDCDC"/>
<path id="Vector_13" d="M30.5549 42.2583V43.7844L28.5233 44.5041L28.5196 46L20.3555 43.0251L20.3536 41.5443L22.4154 40.7888L24.4488 40.0484L30.5549 42.2583Z" fill="#39474F"/>
<path id="Vector_14" d="M30.5549 43.7844L30.5493 45.2577L28.5196 46L28.5233 44.5041L30.5549 43.7844Z" fill="#283239"/>
<path id="Vector_15" d="M30.5549 42.2583L24.4488 40.0484L24.4545 26.7096L30.5587 28.9271L30.5549 42.2583Z" fill="#059161"/>
<path id="Vector_16" d="M24.4545 26.7096L24.4488 40.0484L22.4154 40.7888L22.4116 25.9673L24.4545 26.7096Z" fill="#283239"/>
<path id="Vector_17" d="M20.38 32.6424L14.2683 30.4136L14.2607 23.0567C14.3701 23.0264 14.4248 23.0548 14.5229 23.0888L20.38 25.2194V32.6405V32.6424Z" fill="#059161"/>
<path id="Vector_18" d="M14.2607 23.0586L14.2683 30.4155L12.4329 31.0784C12.3706 31.1011 12.3291 31.1219 12.2895 31.1785C12.2235 31.154 12.231 31.0425 12.231 30.9915V22.2596L14.057 22.9188C14.1457 22.9509 14.2211 22.9849 14.2588 23.0604L14.2607 23.0586Z" fill="#283239"/>
<path id="Vector_19" d="M20.38 32.6424V34.1251L12.2914 31.1766C12.331 31.12 12.3706 31.0992 12.4347 31.0765L14.2702 30.4136L20.3819 32.6424H20.38Z" fill="#39474F"/>
<path id="Vector_20" d="M10.1994 28.9252L4.09902 26.7115L4.12354 19.3055L10.2051 21.5154L10.1994 28.9252Z" fill="#059161"/>
<path id="Vector_21" d="M4.12354 19.3055L4.09902 26.7115L2.30699 27.3575C2.21456 27.3915 2.13722 27.4198 2.05422 27.4462L2.06366 18.5537L4.12354 19.3055Z" fill="#283239"/>
<path id="Vector_22" d="M4.09902 26.7115L10.1994 28.9252V30.4173L2.05422 27.4463C2.13722 27.4198 2.21456 27.3915 2.30699 27.3575L4.09902 26.7115Z" fill="#39474F"/>
<path id="Vector_23" d="M20.3215 17.7907C20.2649 17.4186 20.1103 17.1409 19.9763 16.8349L19.6292 16.036C19.3369 15.1803 19.0181 14.3379 18.6427 13.4861C18.1466 12.3641 17.4543 11.0363 16.4489 10.4281C17.2449 10.5282 18.007 10.7133 18.7804 10.9796C20.3611 11.5255 21.6137 12.6172 22.4116 14.1113L20.4706 17.6452C20.4366 17.7076 20.3611 17.7076 20.3234 17.7869L20.3215 17.7907Z" fill="#283239"/>
<path id="Vector_24" d="M16.4489 10.4319C17.4543 11.0401 18.1466 12.3679 18.6427 13.4899C19.0181 14.3398 19.3369 15.1822 19.6292 16.0397L14.2702 14.1037C14.3833 13.1688 14.9285 11.9316 15.4435 11.1005C15.6472 10.7719 15.9226 10.532 16.2734 10.4054C16.3319 10.4357 16.3998 10.4262 16.4489 10.4338V10.4319Z" fill="#059161"/>
<path id="Vector_25" d="M14.272 14.1018L19.6311 16.0379L19.9782 16.8368C20.1103 17.1409 20.2668 17.4205 20.3234 17.7926L12.2631 14.8706C12.2782 14.8555 12.282 14.8101 12.3027 14.7705L14.272 14.1018Z" fill="#39474F"/>
<path id="Vector_26" d="M16.2734 10.4035C15.9226 10.5301 15.6472 10.77 15.4435 11.0986C14.9285 11.9297 14.3833 13.1669 14.2702 14.1018L12.3008 14.7705L13.7929 11.9203C13.974 11.5746 14.1758 11.2686 14.4494 10.9872C14.87 10.5547 15.7849 10.1467 16.2716 10.4035H16.2734Z" fill="#283239"/>
</g>
<defs>
<clipPath id="clip0_0_4">
<rect width="55" height="46" fill="white"/>
</clipPath>
</defs>
</svg>
